<?xml version="1.0" encoding="UTF-8"?>
<!DOCTYPE svg PUBLIC "-//W3C//DTD SVG 1.1//EN" "http://www.w3.org/Graphics/SVG/1.1/DTD/svg11.dtd">
<svg xmlns="http://www.w3.org/2000/svg" version="1.1" width="256px" height="256px" style="shape-rendering:geometricPrecision; text-rendering:geometricPrecision; image-rendering:optimizeQuality; fill-rule:evenodd; clip-rule:evenodd" xmlns:xlink="http://www.w3.org/1999/xlink">
<g><path style="opacity:0.949" fill="#00fefb" d="M 107.5,-0.5 C 120.833,-0.5 134.167,-0.5 147.5,-0.5C 167.34,3.45011 185.674,11.1168 202.5,22.5C 201.516,25.0704 200.349,25.0704 199,22.5C 197.887,23.7111 196.72,23.7111 195.5,22.5C 193.902,24.9734 192.402,24.9734 191,22.5C 189.333,23.8333 187.667,23.8333 186,22.5C 185.667,23.1667 185.333,23.8333 185,24.5C 183.415,23.6243 182.415,22.2909 182,20.5C 181.609,24.4154 179.776,25.4154 176.5,23.5C 175.006,23.7092 173.839,24.3759 173,25.5C 171.667,21.5 170.333,21.5 169,25.5C 168.517,24.552 168.351,23.552 168.5,22.5C 165.183,22.781 162.017,22.781 159,22.5C 158.692,23.3081 158.192,23.9747 157.5,24.5C 155.275,21.0888 153.609,21.0888 152.5,24.5C 151.201,23.91 150.368,22.91 150,21.5C 149.085,22.3279 148.419,23.3279 148,24.5C 143.874,23.6045 139.874,23.6045 136,24.5C 133.081,21.278 130.581,21.278 128.5,24.5C 128.089,23.7376 127.923,22.7376 128,21.5C 124.256,22.9793 120.589,23.9793 117,24.5C 115.691,22.1088 114.691,22.1088 114,24.5C 111.551,24.0631 109.217,24.0631 107,24.5C 104.582,22.3199 101.916,21.9865 99,23.5C 98.3109,22.6433 97.4776,21.9767 96.5,21.5C 93.3546,23.7323 90.3546,23.7323 87.5,21.5C 86.5224,21.9767 85.6891,22.6433 85,23.5C 81.2059,23.2849 77.3725,22.9516 73.5,22.5C 72.7492,23.376 72.2492,24.376 72,25.5C 70.4452,23.8542 68.7785,23.5209 67,24.5C 65.8456,22.0426 64.5123,22.0426 63,24.5C 61.4452,22.8542 59.7785,22.5209 58,23.5C 56.583,22.9221 55.7496,21.9221 55.5,20.5C 71.5376,10.143 88.8709,3.14301 107.5,-0.5 Z"/></g>
<g><path style="opacity:0.984" fill="#00fef6" d="M 55.5,20.5 C 55.7496,21.9221 56.583,22.9221 58,23.5C 59.7785,22.5209 61.4452,22.8542 63,24.5C 64.5123,22.0426 65.8456,22.0426 67,24.5C 68.7785,23.5209 70.4452,23.8542 72,25.5C 72.2492,24.376 72.7492,23.376 73.5,22.5C 77.3725,22.9516 81.2059,23.2849 85,23.5C 85.6891,22.6433 86.5224,21.9767 87.5,21.5C 90.3546,23.7323 93.3546,23.7323 96.5,21.5C 97.4776,21.9767 98.3109,22.6433 99,23.5C 101.916,21.9865 104.582,22.3199 107,24.5C 109.217,24.0631 111.551,24.0631 114,24.5C 114.691,22.1088 115.691,22.1088 117,24.5C 120.589,23.9793 124.256,22.9793 128,21.5C 127.923,22.7376 128.089,23.7376 128.5,24.5C 130.581,21.278 133.081,21.278 136,24.5C 139.874,23.6045 143.874,23.6045 148,24.5C 148.419,23.3279 149.085,22.3279 150,21.5C 150.368,22.91 151.201,23.91 152.5,24.5C 153.609,21.0888 155.275,21.0888 157.5,24.5C 158.192,23.9747 158.692,23.3081 159,22.5C 162.017,22.781 165.183,22.781 168.5,22.5C 168.351,23.552 168.517,24.552 169,25.5C 170.333,21.5 171.667,21.5 173,25.5C 173.839,24.3759 175.006,23.7092 176.5,23.5C 179.776,25.4154 181.609,24.4154 182,20.5C 182.415,22.2909 183.415,23.6243 185,24.5C 185.333,23.8333 185.667,23.1667 186,22.5C 187.667,23.8333 189.333,23.8333 191,22.5C 192.402,24.9734 193.902,24.9734 195.5,22.5C 196.72,23.7111 197.887,23.7111 199,22.5C 200.349,25.0704 201.516,25.0704 202.5,22.5C 210.811,27.8114 217.811,34.478 223.5,42.5C 221.915,42.0146 220.415,42.6812 219,44.5C 216.736,42.0174 214.403,42.0174 212,44.5C 210.527,44.0969 209.194,43.4303 208,42.5C 206.853,43.4581 205.853,43.1247 205,41.5C 203.691,43.8912 202.691,43.8912 202,41.5C 201.309,43.8912 200.309,43.8912 199,41.5C 197.667,42.1667 196.333,42.8333 195,43.5C 190.139,42.8891 185.472,42.8891 181,43.5C 179.674,43.2451 178.674,42.5784 178,41.5C 177.692,42.3081 177.192,42.9747 176.5,43.5C 174.899,42.8346 173.399,42.5012 172,42.5C 170.691,44.8912 169.691,44.8912 169,42.5C 164.944,43.065 160.444,43.3983 155.5,43.5C 154.353,43.1822 153.519,42.5156 153,41.5C 148.91,43.0726 145.077,43.406 141.5,42.5C 140.522,42.9767 139.689,43.6433 139,44.5C 138.221,43.2718 137.221,42.2718 136,41.5C 135.619,42.4818 134.786,43.1485 133.5,43.5C 132.045,42.6102 130.711,42.6102 129.5,43.5C 128.459,41.0087 127.626,41.0087 127,43.5C 124.658,42.8218 122.324,43.1552 120,44.5C 119.667,43.5 119.333,42.5 119,41.5C 117.667,42.8333 116.333,42.8333 115,41.5C 114,42.1667 113,42.8333 112,43.5C 106.116,43.8107 100.783,43.4774 96,42.5C 94.6796,44.5828 93.3462,44.2494 92,41.5C 91.3333,42.1667 90.6667,42.8333 90,43.5C 83.4185,43.5995 76.9185,43.2661 70.5,42.5C 67.2903,45.4629 64.457,45.1295 62,41.5C 61.6667,42.1667 61.3333,42.8333 61,43.5C 58.1359,42.7878 55.1359,42.4545 52,42.5C 51.6667,43.1667 51.3333,43.8333 51,44.5C 49.6004,41.6545 48.1004,41.3211 46.5,43.5C 45.8076,42.9747 45.3076,42.3081 45,41.5C 44.6924,42.3081 44.1924,42.9747 43.5,43.5C 41.8333,42.1667 40.1667,42.1667 38.5,43.5C 37.8076,42.9747 37.3076,42.3081 37,41.5C 36.6121,42.428 35.9454,43.0946 35,43.5C 33.5447,42.4196 32.0447,42.4196 30.5,43.5C 37.3805,34.2311 45.7139,26.5645 55.5,20.5 Z"/></g>
<g><path style="opacity:0.987" fill="#00fcee" d="M 223.5,42.5 C 228.229,46.8983 232.229,51.8983 235.5,57.5C 235.389,58.1174 235.056,58.6174 234.5,59C 231.905,59.2256 229.405,59.7256 227,60.5C 226.667,59.8333 226.333,59.1667 226,58.5C 224.057,60.7151 222.391,60.7151 221,58.5C 219.806,59.4303 218.473,60.0969 217,60.5C 205.25,60.3224 193.25,59.9891 181,59.5C 180.517,60.448 180.351,61.448 180.5,62.5C 172.96,56.2589 164.293,52.4256 154.5,51C 133.199,49.5958 111.866,49.0958 90.5,49.5C 89.8066,54.6845 88.8066,59.6845 87.5,64.5C 87.0228,62.01 85.6895,60.01 83.5,58.5C 82.452,59.3829 81.2853,60.0496 80,60.5C 75.276,60.4557 70.6093,60.1224 66,59.5C 64.7387,59.7591 63.7387,60.4258 63,61.5C 62.1247,59.4873 60.7913,59.4873 59,61.5C 58.6924,60.6919 58.1924,60.0253 57.5,59.5C 46.9926,59.2461 36.6593,59.5795 26.5,60.5C 25.5,59.8333 24.5,59.1667 23.5,58.5C 21.8211,60.1045 19.8211,60.7711 17.5,60.5C 21.1175,54.2547 25.4508,48.588 30.5,43.5C 32.0447,42.4196 33.5447,42.4196 35,43.5C 35.9454,43.0946 36.6121,42.428 37,41.5C 37.3076,42.3081 37.8076,42.9747 38.5,43.5C 40.1667,42.1667 41.8333,42.1667 43.5,43.5C 44.1924,42.9747 44.6924,42.3081 45,41.5C 45.3076,42.3081 45.8076,42.9747 46.5,43.5C 48.1004,41.3211 49.6004,41.6545 51,44.5C 51.3333,43.8333 51.6667,43.1667 52,42.5C 55.1359,42.4545 58.1359,42.7878 61,43.5C 61.3333,42.8333 61.6667,42.1667 62,41.5C 64.457,45.1295 67.2903,45.4629 70.5,42.5C 76.9185,43.2661 83.4185,43.5995 90,43.5C 90.6667,42.8333 91.3333,42.1667 92,41.5C 93.3462,44.2494 94.6796,44.5828 96,42.5C 100.783,43.4774 106.116,43.8107 112,43.5C 113,42.8333 114,42.1667 115,41.5C 116.333,42.8333 117.667,42.8333 119,41.5C 119.333,42.5 119.667,43.5 120,44.5C 122.324,43.1552 124.658,42.8218 127,43.5C 127.626,41.0087 128.459,41.0087 129.5,43.5C 130.711,42.6102 132.045,42.6102 133.5,43.5C 134.786,43.1485 135.619,42.4818 136,41.5C 137.221,42.2718 138.221,43.2718 139,44.5C 139.689,43.6433 140.522,42.9767 141.5,42.5C 145.077,43.406 148.91,43.0726 153,41.5C 153.519,42.5156 154.353,43.1822 155.5,43.5C 160.444,43.3983 164.944,43.065 169,42.5C 169.691,44.8912 170.691,44.8912 172,42.5C 173.399,42.5012 174.899,42.8346 176.5,43.5C 177.192,42.9747 177.692,42.3081 178,41.5C 178.674,42.5784 179.674,43.2451 181,43.5C 185.472,42.8891 190.139,42.8891 195,43.5C 196.333,42.8333 197.667,42.1667 199,41.5C 200.309,43.8912 201.309,43.8912 202,41.5C 202.691,43.8912 203.691,43.8912 205,41.5C 205.853,43.1247 206.853,43.4581 208,42.5C 209.194,43.4303 210.527,44.0969 212,44.5C 214.403,42.0174 216.736,42.0174 219,44.5C 220.415,42.6812 221.915,42.0146 223.5,42.5 Z"/></g>
<g><path style="opacity:1" fill="#010504" d="M 180.5,62.5 C 183.987,66.3218 186.653,70.6551 188.5,75.5C 188.41,78.1522 189.076,80.4855 190.5,82.5C 190.5,87.8333 190.5,93.1667 190.5,98.5C 189.307,107.419 185.973,115.419 180.5,122.5C 176.978,125.75 173.311,128.75 169.5,131.5C 163.896,133.758 158.229,135.925 152.5,138C 141.221,139.692 130.554,138.192 120.5,133.5C 115.263,129.756 111.263,124.923 108.5,119C 120.611,120.327 132.611,119.661 144.5,117C 150.145,115.173 154.812,112.007 158.5,107.5C 160.588,105.664 161.921,103.331 162.5,100.5C 166.749,84.863 160.749,75.6963 144.5,73C 134.172,72.5002 123.839,72.3335 113.5,72.5C 112.067,79.0976 111.067,85.7643 110.5,92.5C 109.094,97.4133 108.094,102.413 107.5,107.5C 105.567,116.326 103.901,125.326 102.5,134.5C 101.193,139.066 100.526,143.733 100.5,148.5C 98.4397,155.205 97.1064,162.205 96.5,169.5C 95.8333,172.833 95.1667,176.167 94.5,179.5C 93.8257,185.564 92.8257,191.564 91.5,197.5C 90.7347,200.096 90.4013,202.763 90.5,205.5C 81.3178,205.827 72.3178,205.493 63.5,204.5C 64.0582,199.484 64.7249,194.484 65.5,189.5C 66.5934,185.606 67.2601,181.606 67.5,177.5C 69.6547,168.38 71.3214,159.047 72.5,149.5C 73.9264,144.279 74.9264,138.945 75.5,133.5C 76.3813,129.546 77.0479,125.546 77.5,121.5C 78.4853,117.924 79.152,114.258 79.5,110.5C 80.8186,104.923 81.8186,99.2568 82.5,93.5C 83.8186,87.9235 84.8186,82.2568 85.5,76.5C 86.5934,72.6061 87.2601,68.6061 87.5,64.5C 88.8066,59.6845 89.8066,54.6845 90.5,49.5C 111.866,49.0958 133.199,49.5958 154.5,51C 164.293,52.4256 172.96,56.2589 180.5,62.5 Z"/></g>
<g><path style="opacity:0.987" fill="#00feea" d="M 87.5,64.5 C 87.2601,68.6061 86.5934,72.6061 85.5,76.5C 83.5953,76.9283 81.762,76.2616 80,74.5C 79,75.8333 78,75.8333 77,74.5C 76.3086,76.8912 75.3086,76.8912 74,74.5C 72.6841,77.028 71.5174,77.028 70.5,74.5C 68.8333,74.5 67.1667,74.5 65.5,74.5C 64.8076,75.0253 64.3076,75.6919 64,76.5C 62.8061,75.5697 61.4728,74.9031 60,74.5C 54.0681,74.7653 48.4014,74.7653 43,74.5C 42.6667,75.1667 42.3333,75.8333 42,76.5C 41.2613,75.4258 40.2613,74.7591 39,74.5C 32.2835,74.5997 25.6168,74.5997 19,74.5C 17.3943,76.984 15.8943,76.984 14.5,74.5C 13.5745,75.6405 12.7412,75.6405 12,74.5C 11.2917,75.3805 10.4584,76.0472 9.5,76.5C 11.6417,70.8832 14.3084,65.5499 17.5,60.5C 19.8211,60.7711 21.8211,60.1045 23.5,58.5C 24.5,59.1667 25.5,59.8333 26.5,60.5C 36.6593,59.5795 46.9926,59.2461 57.5,59.5C 58.1924,60.0253 58.6924,60.6919 59,61.5C 60.7913,59.4873 62.1247,59.4873 63,61.5C 63.7387,60.4258 64.7387,59.7591 66,59.5C 70.6093,60.1224 75.276,60.4557 80,60.5C 81.2853,60.0496 82.452,59.3829 83.5,58.5C 85.6895,60.01 87.0228,62.01 87.5,64.5 Z"/></g>
<g><path style="opacity:0.982" fill="#00fee9" d="M 235.5,57.5 C 239.26,62.6837 242.26,68.3504 244.5,74.5C 243.778,74.9175 243.278,75.5842 243,76.5C 241.846,74.0426 240.512,74.0426 239,76.5C 238.333,75.8333 237.667,75.1667 237,74.5C 224.055,75.7782 211.222,75.7782 198.5,74.5C 196.971,74.5288 195.804,75.1955 195,76.5C 193.506,75.2528 192.006,75.2528 190.5,76.5C 191.653,77.6868 191.653,78.6868 190.5,79.5C 190.011,78.0048 189.345,76.6715 188.5,75.5C 186.653,70.6551 183.987,66.3218 180.5,62.5C 180.351,61.448 180.517,60.448 181,59.5C 193.25,59.9891 205.25,60.3224 217,60.5C 218.473,60.0969 219.806,59.4303 221,58.5C 222.391,60.7151 224.057,60.7151 226,58.5C 226.333,59.1667 226.667,59.8333 227,60.5C 229.405,59.7256 231.905,59.2256 234.5,59C 235.056,58.6174 235.389,58.1174 235.5,57.5 Z"/></g>
<g><path style="opacity:0.989" fill="#00fee3" d="M 85.5,76.5 C 84.8186,82.2568 83.8186,87.9235 82.5,93.5C 80.4849,91.2794 78.1515,90.9461 75.5,92.5C 71.4563,90.5163 67.2897,90.5163 63,92.5C 60.5994,91.5343 57.9328,91.5343 55,92.5C 54,91.8333 53,91.1667 52,90.5C 50.4815,90.0574 49.3148,90.7241 48.5,92.5C 33.41,92.2664 18.41,91.9331 3.5,91.5C 5.12766,86.2696 7.12766,81.2696 9.5,76.5C 10.4584,76.0472 11.2917,75.3805 12,74.5C 12.7412,75.6405 13.5745,75.6405 14.5,74.5C 15.8943,76.984 17.3943,76.984 19,74.5C 25.6168,74.5997 32.2835,74.5997 39,74.5C 40.2613,74.7591 41.2613,75.4258 42,76.5C 42.3333,75.8333 42.6667,75.1667 43,74.5C 48.4014,74.7653 54.0681,74.7653 60,74.5C 61.4728,74.9031 62.8061,75.5697 64,76.5C 64.3076,75.6919 64.8076,75.0253 65.5,74.5C 67.1667,74.5 68.8333,74.5 70.5,74.5C 71.5174,77.028 72.6841,77.028 74,74.5C 75.3086,76.8912 76.3086,76.8912 77,74.5C 78,75.8333 79,75.8333 80,74.5C 81.762,76.2616 83.5953,76.9283 85.5,76.5 Z"/></g>
<g><path style="opacity:1" fill="#00fae0" d="M 162.5,100.5 C 162.752,97.6802 162.252,95.0135 161,92.5C 159.542,91.2532 158.042,91.2532 156.5,92.5C 155.459,90.0087 154.626,90.0087 154,92.5C 149.681,90.6959 145.514,90.6959 141.5,92.5C 140.483,89.972 139.316,89.972 138,92.5C 135.945,92.848 133.945,92.1814 132,90.5C 129.393,91.2705 126.727,91.9371 124,92.5C 119.71,91.4018 115.21,91.4018 110.5,92.5C 111.067,85.7643 112.067,79.0976 113.5,72.5C 123.839,72.3335 134.172,72.5002 144.5,73C 160.749,75.6963 166.749,84.863 162.5,100.5 Z"/></g>
<g><path style="opacity:0.983" fill="#00fce2" d="M 244.5,74.5 C 247.596,80.1092 249.93,86.1092 251.5,92.5C 241.407,91.9263 231.074,91.9263 220.5,92.5C 218.878,90.146 217.378,90.146 216,92.5C 208.158,92.1607 200.491,92.1607 193,92.5C 192.667,91.1667 192.333,89.8333 192,88.5C 191.821,92.0252 191.321,95.3586 190.5,98.5C 190.5,93.1667 190.5,87.8333 190.5,82.5C 190.5,81.5 190.5,80.5 190.5,79.5C 191.653,78.6868 191.653,77.6868 190.5,76.5C 192.006,75.2528 193.506,75.2528 195,76.5C 195.804,75.1955 196.971,74.5288 198.5,74.5C 211.222,75.7782 224.055,75.7782 237,74.5C 237.667,75.1667 238.333,75.8333 239,76.5C 240.512,74.0426 241.846,74.0426 243,76.5C 243.278,75.5842 243.778,74.9175 244.5,74.5 Z"/></g>
<g><path style="opacity:1" fill="#064e46" d="M 188.5,75.5 C 189.345,76.6715 190.011,78.0048 190.5,79.5C 190.5,80.5 190.5,81.5 190.5,82.5C 189.076,80.4855 188.41,78.1522 188.5,75.5 Z"/></g>
<g><path style="opacity:0.99" fill="#00fedd" d="M 82.5,93.5 C 81.8186,99.2568 80.8186,104.923 79.5,110.5C 78.8365,108.958 78.1698,107.291 77.5,105.5C 74.6304,104.271 71.7971,104.605 69,106.5C 68,103.833 67,103.833 66,106.5C 64.5618,105.282 62.8951,104.615 61,104.5C 58.2419,105.419 55.7419,105.419 53.5,104.5C 51.6183,105.093 49.7849,105.76 48,106.5C 47.6667,105.833 47.3333,105.167 47,104.5C 40.7101,105.419 34.8767,105.419 29.5,104.5C 28.5224,104.977 27.6891,105.643 27,106.5C 23.5542,105.277 20.2209,104.61 17,104.5C 16.3109,105.357 15.4776,106.023 14.5,106.5C 13.1667,105.167 11.8333,105.167 10.5,106.5C 8.22406,105.787 5.89073,105.287 3.5,105C 2.61947,104.292 1.9528,103.458 1.5,102.5C 1.69111,98.7379 2.35778,95.0712 3.5,91.5C 18.41,91.9331 33.41,92.2664 48.5,92.5C 49.3148,90.7241 50.4815,90.0574 52,90.5C 53,91.1667 54,91.8333 55,92.5C 57.9328,91.5343 60.5994,91.5343 63,92.5C 67.2897,90.5163 71.4563,90.5163 75.5,92.5C 78.1515,90.9461 80.4849,91.2794 82.5,93.5 Z"/></g>
<g><path style="opacity:1" fill="#00fddc" d="M 162.5,100.5 C 161.921,103.331 160.588,105.664 158.5,107.5C 157.159,105.88 155.326,104.88 153,104.5C 151.434,103.939 150.101,104.606 149,106.5C 146.333,105.833 143.667,105.167 141,104.5C 130.995,105.567 120.995,105.567 111,104.5C 110.252,106.332 109.252,107.999 108,109.5C 107.536,108.906 107.369,108.239 107.5,107.5C 108.094,102.413 109.094,97.4133 110.5,92.5C 115.21,91.4018 119.71,91.4018 124,92.5C 126.727,91.9371 129.393,91.2705 132,90.5C 133.945,92.1814 135.945,92.848 138,92.5C 139.316,89.972 140.483,89.972 141.5,92.5C 145.514,90.6959 149.681,90.6959 154,92.5C 154.626,90.0087 155.459,90.0087 156.5,92.5C 158.042,91.2532 159.542,91.2532 161,92.5C 162.252,95.0135 162.752,97.6802 162.5,100.5 Z"/></g>
<g><path style="opacity:0.99" fill="#00fed7" d="M 1.5,102.5 C 1.9528,103.458 2.61947,104.292 3.5,105C 5.89073,105.287 8.22406,105.787 10.5,106.5C 11.8333,105.167 13.1667,105.167 14.5,106.5C 15.4776,106.023 16.3109,105.357 17,104.5C 20.2209,104.61 23.5542,105.277 27,106.5C 27.6891,105.643 28.5224,104.977 29.5,104.5C 34.8767,105.419 40.7101,105.419 47,104.5C 47.3333,105.167 47.6667,105.833 48,106.5C 49.7849,105.76 51.6183,105.093 53.5,104.5C 55.7419,105.419 58.2419,105.419 61,104.5C 62.8951,104.615 64.5618,105.282 66,106.5C 67,103.833 68,103.833 69,106.5C 71.7971,104.605 74.6304,104.271 77.5,105.5C 78.1698,107.291 78.8365,108.958 79.5,110.5C 79.152,114.258 78.4853,117.924 77.5,121.5C 76.7326,120.828 76.0659,119.995 75.5,119C 61.889,118.256 48.389,118.423 35,119.5C 34.6667,118.833 34.3333,118.167 34,117.5C 33.3109,118.357 32.4776,119.023 31.5,119.5C 25.257,118.592 19.4236,118.592 14,119.5C 11.6667,118.833 9.33333,118.167 7,117.5C 4.56438,118.355 2.06438,119.021 -0.5,119.5C -0.5,115.833 -0.5,112.167 -0.5,108.5C 0.166667,106.5 0.833333,104.5 1.5,102.5 Z"/></g>
<g><path style="opacity:1" fill="#00f5cf" d="M 158.5,107.5 C 154.812,112.007 150.145,115.173 144.5,117C 132.611,119.661 120.611,120.327 108.5,119C 111.263,124.923 115.263,129.756 120.5,133.5C 118.418,133.528 116.584,132.861 115,131.5C 113.883,131.665 112.716,131.998 111.5,132.5C 110.459,130.009 109.626,130.009 109,132.5C 106.298,131.261 104.132,131.927 102.5,134.5C 103.901,125.326 105.567,116.326 107.5,107.5C 107.369,108.239 107.536,108.906 108,109.5C 109.252,107.999 110.252,106.332 111,104.5C 120.995,105.567 130.995,105.567 141,104.5C 143.667,105.167 146.333,105.833 149,106.5C 150.101,104.606 151.434,103.939 153,104.5C 155.326,104.88 157.159,105.88 158.5,107.5 Z"/></g>
<g><path style="opacity:0.99" fill="#00fed8" d="M 251.5,92.5 C 252.974,97.8946 254.308,103.228 255.5,108.5C 255.5,111.833 255.5,115.167 255.5,118.5C 233.102,119.704 210.602,119.704 188,118.5C 185.35,119.673 182.85,121.006 180.5,122.5C 185.973,115.419 189.307,107.419 190.5,98.5C 191.321,95.3586 191.821,92.0252 192,88.5C 192.333,89.8333 192.667,91.1667 193,92.5C 200.491,92.1607 208.158,92.1607 216,92.5C 217.378,90.146 218.878,90.146 220.5,92.5C 231.074,91.9263 241.407,91.9263 251.5,92.5 Z"/></g>
<g><path style="opacity:0.999" fill="#00fed1" d="M 77.5,121.5 C 77.0479,125.546 76.3813,129.546 75.5,133.5C 74.4693,132.645 73.3026,131.978 72,131.5C 69.5597,131.607 67.0597,131.607 64.5,131.5C 63.2519,132.04 62.0852,132.707 61,133.5C 60.6667,132.833 60.3333,132.167 60,131.5C 49.0083,132.159 37.8416,132.159 26.5,131.5C 25.8076,132.025 25.3076,132.692 25,133.5C 23.6871,132.427 22.1871,131.76 20.5,131.5C 13.6022,131.799 6.60218,131.799 -0.5,131.5C -0.5,127.5 -0.5,123.5 -0.5,119.5C 2.06438,119.021 4.56438,118.355 7,117.5C 9.33333,118.167 11.6667,118.833 14,119.5C 19.4236,118.592 25.257,118.592 31.5,119.5C 32.4776,119.023 33.3109,118.357 34,117.5C 34.3333,118.167 34.6667,118.833 35,119.5C 48.389,118.423 61.889,118.256 75.5,119C 76.0659,119.995 76.7326,120.828 77.5,121.5 Z"/></g>
<g><path style="opacity:0.999" fill="#00fed0" d="M 255.5,118.5 C 255.5,123.167 255.5,127.833 255.5,132.5C 248.332,131.669 240.998,131.669 233.5,132.5C 230.591,130.266 227.758,130.6 225,133.5C 222.733,132.711 220.4,132.044 218,131.5C 212.49,132.41 207.157,132.743 202,132.5C 200.739,132.241 199.739,131.574 199,130.5C 198.692,131.308 198.192,131.975 197.5,132.5C 195.352,131.242 193.185,131.242 191,132.5C 189.103,130.084 187.103,130.084 185,132.5C 180.125,132.232 174.958,131.899 169.5,131.5C 173.311,128.75 176.978,125.75 180.5,122.5C 182.85,121.006 185.35,119.673 188,118.5C 210.602,119.704 233.102,119.704 255.5,118.5 Z"/></g>
<g><path style="opacity:0.996" fill="#00fdc9" d="M 120.5,133.5 C 130.554,138.192 141.221,139.692 152.5,138C 158.229,135.925 163.896,133.758 169.5,131.5C 174.958,131.899 180.125,132.232 185,132.5C 187.103,130.084 189.103,130.084 191,132.5C 193.185,131.242 195.352,131.242 197.5,132.5C 198.192,131.975 198.692,131.308 199,130.5C 199.739,131.574 200.739,132.241 202,132.5C 207.157,132.743 212.49,132.41 218,131.5C 220.4,132.044 222.733,132.711 225,133.5C 227.758,130.6 230.591,130.266 233.5,132.5C 240.998,131.669 248.332,131.669 255.5,132.5C 255.5,137.167 255.5,141.833 255.5,146.5C 255.167,146.5 254.833,146.5 254.5,146.5C 253.778,146.918 253.278,147.584 253,148.5C 251.559,147.74 250.059,147.074 248.5,146.5C 241.134,146.934 233.801,146.934 226.5,146.5C 221.821,148.51 217.321,148.51 213,146.5C 211.434,145.939 210.101,146.606 209,148.5C 208.333,147.167 207.667,147.167 207,148.5C 206.667,147.833 206.333,147.167 206,146.5C 205.259,147.641 204.425,147.641 203.5,146.5C 202.808,147.025 202.308,147.692 202,148.5C 200.434,149.061 199.101,148.394 198,146.5C 180.358,147.526 162.691,147.526 145,146.5C 144.333,147.167 143.667,147.833 143,148.5C 141,147.833 139,147.167 137,146.5C 132.593,147.34 128.26,147.673 124,147.5C 122.739,147.241 121.739,146.574 121,145.5C 118.624,147.744 115.957,148.077 113,146.5C 110.803,148.731 108.47,148.731 106,146.5C 104.275,147.464 102.441,148.131 100.5,148.5C 100.526,143.733 101.193,139.066 102.5,134.5C 104.132,131.927 106.298,131.261 109,132.5C 109.626,130.009 110.459,130.009 111.5,132.5C 112.716,131.998 113.883,131.665 115,131.5C 116.584,132.861 118.418,133.528 120.5,133.5 Z"/></g>
<g><path style="opacity:0.992" fill="#00feca" d="M -0.5,131.5 C 6.60218,131.799 13.6022,131.799 20.5,131.5C 22.1871,131.76 23.6871,132.427 25,133.5C 25.3076,132.692 25.8076,132.025 26.5,131.5C 37.8416,132.159 49.0083,132.159 60,131.5C 60.3333,132.167 60.6667,132.833 61,133.5C 62.0852,132.707 63.2519,132.04 64.5,131.5C 67.0597,131.607 69.5597,131.607 72,131.5C 73.3026,131.978 74.4693,132.645 75.5,133.5C 74.9264,138.945 73.9264,144.279 72.5,149.5C 71.7321,148.737 71.2321,147.737 71,146.5C 68.197,147.357 65.197,147.357 62,146.5C 61.6667,147.167 61.3333,147.833 61,148.5C 60.4806,147.484 59.6473,146.818 58.5,146.5C 39.2718,146.781 19.9385,146.781 0.5,146.5C 0.166667,146.5 -0.166667,146.5 -0.5,146.5C -0.5,141.5 -0.5,136.5 -0.5,131.5 Z"/></g>
<g><path style="opacity:0.993" fill="#00fec3" d="M 254.5,146.5 C 254.375,151.794 253.375,156.794 251.5,161.5C 249.777,160.193 247.943,160.193 246,161.5C 245.374,159.009 244.541,159.009 243.5,161.5C 242.808,160.975 242.308,160.308 242,159.5C 239.667,160.833 237.333,160.833 235,159.5C 233.316,161.459 231.316,161.459 229,159.5C 228.333,160.167 227.667,160.833 227,161.5C 225,160.167 223,160.167 221,161.5C 220,158.833 219,158.833 218,161.5C 210.076,161.688 202.91,161.354 196.5,160.5C 195.353,160.818 194.519,161.484 194,162.5C 193.692,161.692 193.192,161.025 192.5,160.5C 181.008,161.173 169.341,161.507 157.5,161.5C 154.284,159.286 150.951,159.286 147.5,161.5C 146.808,160.975 146.308,160.308 146,159.5C 143.667,160.167 141.333,160.833 139,161.5C 137,160.167 135,160.167 133,161.5C 132.667,160.833 132.333,160.167 132,159.5C 128.486,159.892 124.653,160.558 120.5,161.5C 118.246,159.027 116.08,159.027 114,161.5C 109.677,160.901 105.344,160.567 101,160.5C 99.4696,163.561 97.9696,166.561 96.5,169.5C 97.1064,162.205 98.4397,155.205 100.5,148.5C 102.441,148.131 104.275,147.464 106,146.5C 108.47,148.731 110.803,148.731 113,146.5C 115.957,148.077 118.624,147.744 121,145.5C 121.739,146.574 122.739,147.241 124,147.5C 128.26,147.673 132.593,147.34 137,146.5C 139,147.167 141,147.833 143,148.5C 143.667,147.833 144.333,147.167 145,146.5C 162.691,147.526 180.358,147.526 198,146.5C 199.101,148.394 200.434,149.061 202,148.5C 202.308,147.692 202.808,147.025 203.5,146.5C 204.425,147.641 205.259,147.641 206,146.5C 206.333,147.167 206.667,147.833 207,148.5C 207.667,147.167 208.333,147.167 209,148.5C 210.101,146.606 211.434,145.939 213,146.5C 217.321,148.51 221.821,148.51 226.5,146.5C 233.801,146.934 241.134,146.934 248.5,146.5C 250.059,147.074 251.559,147.74 253,148.5C 253.278,147.584 253.778,146.918 254.5,146.5 Z"/></g>
<g><path style="opacity:0.986" fill="#00fec0" d="M 0.5,146.5 C 19.9385,146.781 39.2718,146.781 58.5,146.5C 59.6473,146.818 60.4806,147.484 61,148.5C 61.3333,147.833 61.6667,147.167 62,146.5C 65.197,147.357 68.197,147.357 71,146.5C 71.2321,147.737 71.7321,148.737 72.5,149.5C 71.3214,159.047 69.6547,168.38 67.5,177.5C 66.8592,175.958 65.8592,174.624 64.5,173.5C 61.2995,173.566 58.1329,173.566 55,173.5C 52.2483,175.906 49.5816,175.906 47,173.5C 45.7387,173.759 44.7387,174.426 44,175.5C 42.3333,174.167 40.6667,174.167 39,175.5C 38.6667,174.833 38.3333,174.167 38,173.5C 34.8653,174.799 31.6987,174.799 28.5,173.5C 25.6296,174.122 22.7963,174.789 20,175.5C 19,174.833 18,174.167 17,173.5C 13.7248,174.304 10.5581,174.637 7.5,174.5C 3.60194,165.574 1.26861,156.241 0.5,146.5 Z"/></g>
<g><path style="opacity:0.995" fill="#00febe" d="M 251.5,161.5 C 250.565,165.969 249.232,170.303 247.5,174.5C 244.746,174.887 242.246,175.221 240,175.5C 239.667,174.833 239.333,174.167 239,173.5C 235.052,174.692 231.052,174.692 227,173.5C 224.96,176.146 222.96,176.146 221,173.5C 218.333,176.167 215.667,176.167 213,173.5C 212.311,174.357 211.478,175.023 210.5,175.5C 208.024,174.771 205.524,174.104 203,173.5C 201.909,175.346 200.576,176.013 199,175.5C 196.249,173.027 193.082,173.027 189.5,175.5C 188.808,174.975 188.308,174.308 188,173.5C 186.333,174.167 184.667,174.833 183,175.5C 181.501,173.244 179.834,173.244 178,175.5C 175.073,175.229 172.239,175.229 169.5,175.5C 168.167,174.833 166.833,174.167 165.5,173.5C 159.97,174.815 154.47,174.815 149,173.5C 148.333,174.167 147.667,174.833 147,175.5C 140.233,174.235 133.233,174.235 126,175.5C 122.445,173.293 118.779,173.293 115,175.5C 112.204,174.789 109.37,174.122 106.5,173.5C 105.184,176.028 104.017,176.028 103,173.5C 102.333,174.167 101.667,174.833 101,175.5C 99.8173,174.269 98.6507,174.269 97.5,175.5C 96.4793,176.901 95.4793,178.235 94.5,179.5C 95.1667,176.167 95.8333,172.833 96.5,169.5C 97.9696,166.561 99.4696,163.561 101,160.5C 105.344,160.567 109.677,160.901 114,161.5C 116.08,159.027 118.246,159.027 120.5,161.5C 124.653,160.558 128.486,159.892 132,159.5C 132.333,160.167 132.667,160.833 133,161.5C 135,160.167 137,160.167 139,161.5C 141.333,160.833 143.667,160.167 146,159.5C 146.308,160.308 146.808,160.975 147.5,161.5C 150.951,159.286 154.284,159.286 157.5,161.5C 169.341,161.507 181.008,161.173 192.5,160.5C 193.192,161.025 193.692,161.692 194,162.5C 194.519,161.484 195.353,160.818 196.5,160.5C 202.91,161.354 210.076,161.688 218,161.5C 219,158.833 220,158.833 221,161.5C 223,160.167 225,160.167 227,161.5C 227.667,160.833 228.333,160.167 229,159.5C 231.316,161.459 233.316,161.459 235,159.5C 237.333,160.833 239.667,160.833 242,159.5C 242.308,160.308 242.808,160.975 243.5,161.5C 244.541,159.009 245.374,159.009 246,161.5C 247.943,160.193 249.777,160.193 251.5,161.5 Z"/></g>
<g><path style="opacity:0.985" fill="#00feb8" d="M 67.5,177.5 C 67.2601,181.606 66.5934,185.606 65.5,189.5C 63.7376,189.643 62.0709,189.309 60.5,188.5C 58.5518,190.539 56.3852,190.539 54,188.5C 51.2685,188.899 48.4352,188.899 45.5,188.5C 42.6296,189.122 39.7963,189.789 37,190.5C 36.3333,189.833 35.6667,189.167 35,188.5C 28.0383,189.09 21.205,189.09 14.5,188.5C 11.6566,184.147 9.32325,179.48 7.5,174.5C 10.5581,174.637 13.7248,174.304 17,173.5C 18,174.167 19,174.833 20,175.5C 22.7963,174.789 25.6296,174.122 28.5,173.5C 31.6987,174.799 34.8653,174.799 38,173.5C 38.3333,174.167 38.6667,174.833 39,175.5C 40.6667,174.167 42.3333,174.167 44,175.5C 44.7387,174.426 45.7387,173.759 47,173.5C 49.5816,175.906 52.2483,175.906 55,173.5C 58.1329,173.566 61.2995,173.566 64.5,173.5C 65.8592,174.624 66.8592,175.958 67.5,177.5 Z"/></g>
<g><path style="opacity:0.993" fill="#00feb8" d="M 247.5,174.5 C 245.343,180.146 242.677,185.48 239.5,190.5C 237.648,189.911 235.815,189.244 234,188.5C 233.309,190.891 232.309,190.891 231,188.5C 222.547,189.603 214.214,190.27 206,190.5C 204.887,188.2 203.387,187.867 201.5,189.5C 199.541,189.125 197.707,188.459 196,187.5C 195.667,188.167 195.333,188.833 195,189.5C 191.97,189.382 188.803,189.215 185.5,189C 185,188.5 184.5,188 184,187.5C 182.806,188.43 181.473,189.097 180,189.5C 176.044,188.863 172.044,188.53 168,188.5C 167,189.167 166,189.833 165,190.5C 161.23,190.04 157.563,190.04 154,190.5C 152.691,188.109 151.691,188.109 151,190.5C 150.481,189.484 149.647,188.818 148.5,188.5C 145.488,188.671 142.322,189.338 139,190.5C 137.488,188.043 136.154,188.043 135,190.5C 134,187.833 133,187.833 132,190.5C 130.667,189.833 129.333,189.167 128,188.5C 125.388,187.946 122.888,188.613 120.5,190.5C 118.941,189.926 117.441,189.26 116,188.5C 109.245,189.605 102.579,189.605 96,188.5C 94.4696,191.561 92.9696,194.561 91.5,197.5C 92.8257,191.564 93.8257,185.564 94.5,179.5C 95.4793,178.235 96.4793,176.901 97.5,175.5C 98.6507,174.269 99.8173,174.269 101,175.5C 101.667,174.833 102.333,174.167 103,173.5C 104.017,176.028 105.184,176.028 106.5,173.5C 109.37,174.122 112.204,174.789 115,175.5C 118.779,173.293 122.445,173.293 126,175.5C 133.233,174.235 140.233,174.235 147,175.5C 147.667,174.833 148.333,174.167 149,173.5C 154.47,174.815 159.97,174.815 165.5,173.5C 166.833,174.167 168.167,174.833 169.5,175.5C 172.239,175.229 175.073,175.229 178,175.5C 179.834,173.244 181.501,173.244 183,175.5C 184.667,174.833 186.333,174.167 188,173.5C 188.308,174.308 188.808,174.975 189.5,175.5C 193.082,173.027 196.249,173.027 199,175.5C 200.576,176.013 201.909,175.346 203,173.5C 205.524,174.104 208.024,174.771 210.5,175.5C 211.478,175.023 212.311,174.357 213,173.5C 215.667,176.167 218.333,176.167 221,173.5C 222.96,176.146 224.96,176.146 227,173.5C 231.052,174.692 235.052,174.692 239,173.5C 239.333,174.167 239.667,174.833 240,175.5C 242.246,175.221 244.746,174.887 247.5,174.5 Z"/></g>
<g><path style="opacity:0.992" fill="#00feb1" d="M 239.5,190.5 C 236.331,197.662 231.998,203.995 226.5,209.5C 225.542,209.047 224.708,208.381 224,207.5C 222.209,209.513 220.875,209.513 220,207.5C 208.119,207.986 197.119,207.986 187,207.5C 185.691,209.891 184.691,209.891 184,207.5C 182.305,208.157 180.472,208.157 178.5,207.5C 177.006,207.709 175.839,208.376 175,209.5C 174.309,207.109 173.309,207.109 172,209.5C 171.085,208.672 170.419,207.672 170,206.5C 169.333,209.167 168.667,209.167 168,206.5C 167.667,207.167 167.333,207.833 167,208.5C 160.513,208.14 154.18,208.14 148,208.5C 147.667,207.833 147.333,207.167 147,206.5C 145.285,206.52 143.452,207.186 141.5,208.5C 140.252,207.96 139.085,207.293 138,206.5C 136.915,207.293 135.748,207.96 134.5,208.5C 132.223,208.985 130.056,208.319 128,206.5C 127.261,207.574 126.261,208.241 125,208.5C 121.781,208.131 118.448,208.131 115,208.5C 113.739,208.241 112.739,207.574 112,206.5C 109.838,208.647 107.504,208.647 105,206.5C 101.144,207.412 97.1442,207.412 93,206.5C 92.2613,207.574 91.2613,208.241 90,208.5C 85.9026,207.793 81.736,207.459 77.5,207.5C 76.676,209.748 75.676,209.914 74.5,208C 70.3123,207.824 66.3123,207.324 62.5,206.5C 72.015,206.827 81.3483,206.494 90.5,205.5C 90.4013,202.763 90.7347,200.096 91.5,197.5C 92.9696,194.561 94.4696,191.561 96,188.5C 102.579,189.605 109.245,189.605 116,188.5C 117.441,189.26 118.941,189.926 120.5,190.5C 122.888,188.613 125.388,187.946 128,188.5C 129.333,189.167 130.667,189.833 132,190.5C 133,187.833 134,187.833 135,190.5C 136.154,188.043 137.488,188.043 139,190.5C 142.322,189.338 145.488,188.671 148.5,188.5C 149.647,188.818 150.481,189.484 151,190.5C 151.691,188.109 152.691,188.109 154,190.5C 157.563,190.04 161.23,190.04 165,190.5C 166,189.833 167,189.167 168,188.5C 172.044,188.53 176.044,188.863 180,189.5C 181.473,189.097 182.806,188.43 184,187.5C 184.5,188 185,188.5 185.5,189C 188.803,189.215 191.97,189.382 195,189.5C 195.333,188.833 195.667,188.167 196,187.5C 197.707,188.459 199.541,189.125 201.5,189.5C 203.387,187.867 204.887,188.2 206,190.5C 214.214,190.27 222.547,189.603 231,188.5C 232.309,190.891 233.309,190.891 234,188.5C 235.815,189.244 237.648,189.911 239.5,190.5 Z"/></g>
<g><path style="opacity:0.974" fill="#00feb1" d="M 14.5,188.5 C 21.205,189.09 28.0383,189.09 35,188.5C 35.6667,189.167 36.3333,189.833 37,190.5C 39.7963,189.789 42.6296,189.122 45.5,188.5C 48.4352,188.899 51.2685,188.899 54,188.5C 56.3852,190.539 58.5518,190.539 60.5,188.5C 62.0709,189.309 63.7376,189.643 65.5,189.5C 64.7249,194.484 64.0582,199.484 63.5,204.5C 62.6618,204.842 62.3284,205.508 62.5,206.5C 61.8444,207.278 61.0111,207.944 60,208.5C 55.6097,208.316 51.2764,208.316 47,208.5C 46.3333,207.833 45.6667,207.167 45,206.5C 42.9012,207.295 40.7345,208.295 38.5,209.5C 38.2354,206.323 36.7354,205.99 34,208.5C 31.7442,205.929 29.5775,205.929 27.5,208.5C 22.1738,202.524 17.8405,195.857 14.5,188.5 Z"/></g>
<g><path style="opacity:1" fill="#00a974" d="M 63.5,204.5 C 72.3178,205.493 81.3178,205.827 90.5,205.5C 81.3483,206.494 72.015,206.827 62.5,206.5C 62.3284,205.508 62.6618,204.842 63.5,204.5 Z"/></g>
<g><path style="opacity:0.986" fill="#00feab" d="M 62.5,206.5 C 66.3123,207.324 70.3123,207.824 74.5,208C 75.676,209.914 76.676,209.748 77.5,207.5C 81.736,207.459 85.9026,207.793 90,208.5C 91.2613,208.241 92.2613,207.574 93,206.5C 97.1442,207.412 101.144,207.412 105,206.5C 107.504,208.647 109.838,208.647 112,206.5C 112.739,207.574 113.739,208.241 115,208.5C 118.448,208.131 121.781,208.131 125,208.5C 126.261,208.241 127.261,207.574 128,206.5C 130.056,208.319 132.223,208.985 134.5,208.5C 135.748,207.96 136.915,207.293 138,206.5C 139.085,207.293 140.252,207.96 141.5,208.5C 143.452,207.186 145.285,206.52 147,206.5C 147.333,207.167 147.667,207.833 148,208.5C 154.18,208.14 160.513,208.14 167,208.5C 167.333,207.833 167.667,207.167 168,206.5C 168.667,209.167 169.333,209.167 170,206.5C 170.419,207.672 171.085,208.672 172,209.5C 173.309,207.109 174.309,207.109 175,209.5C 175.839,208.376 177.006,207.709 178.5,207.5C 180.472,208.157 182.305,208.157 184,207.5C 184.691,209.891 185.691,209.891 187,207.5C 197.119,207.986 208.119,207.986 220,207.5C 220.875,209.513 222.209,209.513 224,207.5C 224.708,208.381 225.542,209.047 226.5,209.5C 221.167,216.833 214.833,223.167 207.5,228.5C 206.536,226.595 204.869,225.595 202.5,225.5C 199.792,226.041 197.126,226.708 194.5,227.5C 193.304,227.154 193.304,226.654 194.5,226C 193.833,225.833 193.167,225.667 192.5,225.5C 190.28,225.727 188.113,225.727 186,225.5C 183.849,225.765 182.182,226.765 181,228.5C 179.247,227.373 177.413,226.373 175.5,225.5C 170.626,226.518 165.46,226.518 160,225.5C 158.17,227.757 155.837,227.757 153,225.5C 152,226.167 151,226.833 150,227.5C 145.044,225.514 140.21,225.514 135.5,227.5C 134.833,226.833 134.167,226.167 133.5,225.5C 129.31,228.012 125.477,228.012 122,225.5C 118.596,226.48 115.429,226.48 112.5,225.5C 110.41,228.009 108.577,227.675 107,224.5C 105.284,228.171 102.951,228.504 100,225.5C 98.3313,226.166 96.8313,226.166 95.5,225.5C 94.8333,226.167 94.1667,226.833 93.5,227.5C 93.1667,226.833 92.8333,226.167 92.5,225.5C 91.7492,226.376 91.2492,227.376 91,228.5C 88.1228,225.513 85.1228,225.179 82,227.5C 81,224.833 80,224.833 79,227.5C 77.149,225.219 75.4823,225.219 74,227.5C 72.6667,226.833 71.6667,225.833 71,224.5C 70.5814,225.672 69.9147,226.672 69,227.5C 66.1075,227.047 63.1075,227.047 60,227.5C 57.8433,224.922 56.6767,224.922 56.5,227.5C 55.6721,226.585 54.6721,225.919 53.5,225.5C 51.5282,226.443 49.6949,226.776 48,226.5C 47.0471,224.627 45.8804,224.294 44.5,225.5C 37.8333,220.833 32.1667,215.167 27.5,208.5C 29.5775,205.929 31.7442,205.929 34,208.5C 36.7354,205.99 38.2354,206.323 38.5,209.5C 40.7345,208.295 42.9012,207.295 45,206.5C 45.6667,207.167 46.3333,207.833 47,208.5C 51.2764,208.316 55.6097,208.316 60,208.5C 61.0111,207.944 61.8444,207.278 62.5,206.5 Z"/></g>
<g><path style="opacity:0.97" fill="#00fea5" d="M 207.5,228.5 C 189.726,242.386 169.726,251.386 147.5,255.5C 134.167,255.5 120.833,255.5 107.5,255.5C 91.0317,252.173 75.365,246.339 60.5,238C 54.5538,234.538 49.2205,230.371 44.5,225.5C 45.8804,224.294 47.0471,224.627 48,226.5C 49.6949,226.776 51.5282,226.443 53.5,225.5C 54.6721,225.919 55.6721,226.585 56.5,227.5C 56.6767,224.922 57.8433,224.922 60,227.5C 63.1075,227.047 66.1075,227.047 69,227.5C 69.9147,226.672 70.5814,225.672 71,224.5C 71.6667,225.833 72.6667,226.833 74,227.5C 75.4823,225.219 77.149,225.219 79,227.5C 80,224.833 81,224.833 82,227.5C 85.1228,225.179 88.1228,225.513 91,228.5C 91.2492,227.376 91.7492,226.376 92.5,225.5C 92.8333,226.167 93.1667,226.833 93.5,227.5C 94.1667,226.833 94.8333,226.167 95.5,225.5C 96.8313,226.166 98.3313,226.166 100,225.5C 102.951,228.504 105.284,228.171 107,224.5C 108.577,227.675 110.41,228.009 112.5,225.5C 115.429,226.48 118.596,226.48 122,225.5C 125.477,228.012 129.31,228.012 133.5,225.5C 134.167,226.167 134.833,226.833 135.5,227.5C 140.21,225.514 145.044,225.514 150,227.5C 151,226.833 152,226.167 153,225.5C 155.837,227.757 158.17,227.757 160,225.5C 165.46,226.518 170.626,226.518 175.5,225.5C 177.413,226.373 179.247,227.373 181,228.5C 182.182,226.765 183.849,225.765 186,225.5C 188.113,225.727 190.28,225.727 192.5,225.5C 193.167,225.667 193.833,225.833 194.5,226C 193.304,226.654 193.304,227.154 194.5,227.5C 197.126,226.708 199.792,226.041 202.5,225.5C 204.869,225.595 206.536,226.595 207.5,228.5 Z"/></g>
</svg>
